<svg width="420" height="312" viewBox="0 0 420 312" fill="none" xmlns="http://www.w3.org/2000/svg">
<path d="M261.015 80.2275C261.589 81.1715 262.819 81.4718 263.763 80.8983C264.707 80.3247 265.007 79.0945 264.434 78.1505L261.015 80.2275ZM245.331 66.4242C244.23 66.3396 243.268 67.1637 243.183 68.265C243.099 69.3663 243.923 70.3278 245.024 70.4125L245.331 66.4242ZM177.174 290.22C176.531 291.118 176.737 292.367 177.635 293.011C178.533 293.654 179.783 293.447 180.426 292.549L177.174 290.22ZM200.59 213.26L198.611 213.548L198.611 213.549L200.59 213.26ZM157.557 182.05L158.355 183.884L158.356 183.884L157.557 182.05ZM141.158 197.256L142.741 196.033L142.74 196.032L141.158 197.256ZM168.353 188.772L169.16 190.601C170.169 190.156 170.627 188.98 170.185 187.97C169.743 186.96 168.568 186.498 167.557 186.937L168.353 188.772ZM144.473 204.376L142.479 204.522C142.489 204.655 142.512 204.787 142.548 204.916L144.473 204.376ZM170.529 197.651L171.554 199.368C172.456 198.829 172.788 197.686 172.314 196.748C171.84 195.811 170.722 195.4 169.754 195.807L170.529 197.651ZM149.818 213.644L151.633 212.805C151.618 212.772 151.602 212.74 151.585 212.708L149.818 213.644ZM175.591 207.732C176.481 207.077 176.672 205.826 176.017 204.936C175.363 204.046 174.111 203.855 173.221 204.509L175.591 207.732ZM98.7799 235.637C98.5644 234.554 97.5116 233.85 96.4282 234.066C95.3449 234.281 94.6412 235.334 94.8567 236.417L98.7799 235.637ZM117.581 242.789C118.329 241.976 118.277 240.711 117.464 239.963C116.651 239.215 115.386 239.267 114.638 240.08L117.581 242.789ZM107.02 177.76C106.11 177.134 104.865 177.364 104.239 178.274C103.613 179.184 103.843 180.43 104.753 181.056L107.02 177.76ZM134.929 216.843L136.12 218.449C136.832 217.921 137.111 216.987 136.807 216.155L134.929 216.843ZM111.18 231.972C110.293 232.63 110.107 233.883 110.765 234.77C111.423 235.657 112.676 235.842 113.563 235.184L111.18 231.972ZM67.3284 198.654C68.3541 199.063 69.5178 198.564 69.9277 197.538C70.3375 196.513 69.8383 195.349 68.8126 194.939L67.3284 198.654ZM39.0754 200.323L40.9066 201.127L40.9067 201.127L39.0754 200.323ZM42.0078 216.039L40.3384 217.14L40.3385 217.14L42.0078 216.039ZM83.5154 235.771C84.6037 235.582 85.3325 234.546 85.1433 233.458C84.9541 232.37 83.9185 231.641 82.8303 231.83L83.5154 235.771ZM58.7668 205.982C58.8289 204.879 57.9853 203.935 56.8824 203.872C55.7796 203.81 54.8352 204.654 54.7731 205.757L58.7668 205.982ZM62.6873 219.553C63.6704 220.057 64.8756 219.668 65.3793 218.685C65.8829 217.702 65.4943 216.497 64.5112 215.993L62.6873 219.553ZM70.0604 170.802C71.1275 171.088 72.2238 170.454 72.5091 169.387C72.7943 168.32 72.1606 167.223 71.0935 166.938L70.0604 170.802ZM27.9902 182.161L29.5146 183.455L29.5147 183.455L27.9902 182.161ZM26.0551 208.11L27.3464 209.637C27.7922 209.26 28.0511 208.708 28.0551 208.124C28.0591 207.54 27.8079 206.984 27.3674 206.601L26.0551 208.11ZM47.3141 253.028L48.4834 254.651C49.2416 254.105 49.5203 253.106 49.1546 252.246C48.7889 251.386 47.8762 250.894 46.9566 251.061L47.3141 253.028ZM30.2515 303.406L31.3667 301.746L31.3666 301.746L30.2515 303.406ZM71.0798 289.57C71.808 288.739 71.7249 287.475 70.8943 286.747C70.0637 286.019 68.8001 286.102 68.0719 286.933L71.0798 289.57ZM94.3472 196.386C94.1922 195.292 93.18 194.531 92.0863 194.686C90.9927 194.841 90.2317 195.853 90.3867 196.947L94.3472 196.386ZM91.8102 206.992C91.9652 208.085 92.9774 208.846 94.071 208.691C95.1647 208.536 95.9256 207.524 95.7706 206.43L91.8102 206.992ZM60.211 254.141C59.3409 254.821 59.187 256.078 59.8674 256.948C60.5478 257.819 61.8048 257.972 62.6749 257.292L60.211 254.141ZM100.242 253.993L99.1539 255.672L99.1542 255.672L100.242 253.993ZM121.165 303.001C121.345 304.091 122.374 304.828 123.464 304.648C124.554 304.468 125.291 303.439 125.111 302.349L121.165 303.001ZM254.934 49.6611L253.917 47.9394C253.215 48.3541 252.835 49.153 252.957 49.9589C253.078 50.7647 253.676 51.4164 254.469 51.6061L254.934 49.6611ZM350.394 61.1595L350.384 63.1595C350.923 63.162 351.441 62.9468 351.819 62.5627C352.197 62.1785 352.404 61.6579 352.393 61.1189L350.394 61.1595ZM314.852 15.7832L314.129 13.9187L314.129 13.9187L314.852 15.7832ZM298.871 38.4523L298.785 40.4505C299.745 40.4915 300.598 39.8445 300.818 38.9095L298.871 38.4523ZM324.188 64.4982C323.638 63.5401 322.416 63.2087 321.458 63.7582C320.5 64.3077 320.168 65.5299 320.718 66.4881L324.188 64.4982ZM340.176 75.5163L341.531 76.9872C342.142 76.4241 342.341 75.5415 342.031 74.7703C341.721 73.9991 340.966 73.5 340.135 73.5167L340.176 75.5163ZM336.505 84.8877L334.512 85.048C334.512 85.0587 334.513 85.0694 334.514 85.0801L336.505 84.8877ZM340.688 95.1556C341.619 95.75 342.855 95.4772 343.45 94.5462C344.044 93.6152 343.771 92.3786 342.84 91.7842L340.688 95.1556ZM316.942 101.505C316.277 100.624 315.022 100.449 314.141 101.115C313.26 101.781 313.085 103.035 313.751 103.916L316.942 101.505ZM316.364 112.012L318.159 112.892C318.167 112.876 318.175 112.86 318.182 112.844L316.364 112.012ZM308.432 115.127C307.328 115.172 306.47 116.103 306.515 117.207C306.56 118.311 307.491 119.169 308.595 119.124L308.432 115.127ZM289.526 58.1536C290.085 57.2005 289.765 55.9753 288.812 55.4169C287.859 54.8586 286.633 55.1785 286.075 56.1316L289.526 58.1536ZM277.221 104.208L275.229 104.383C275.307 105.265 275.955 105.991 276.823 106.168L277.221 104.208ZM304.877 111.873C305.959 112.094 307.015 111.395 307.235 110.312C307.455 109.23 306.756 108.174 305.674 107.954L304.877 111.873ZM303.402 67.0963C303.077 66.0404 301.958 65.4473 300.903 65.7715C299.847 66.0958 299.254 67.2147 299.578 68.2706L303.402 67.0963ZM302.242 76.945C302.566 78.0009 303.685 78.594 304.741 78.2698C305.797 77.9455 306.39 76.8267 306.065 75.7708L302.242 76.945ZM349.991 59.3507C349.036 59.9057 348.712 61.1298 349.267 62.0849C349.822 63.0399 351.046 63.3641 352.001 62.8091L349.991 59.3507ZM376.359 84.1655L374.546 83.3213C374.16 84.15 374.385 85.1347 375.093 85.7134C375.8 86.2922 376.81 86.3177 377.546 85.7754L376.359 84.1655ZM370.903 119.041C369.835 118.758 368.74 119.394 368.458 120.462C368.175 121.53 368.811 122.625 369.879 122.907L370.903 119.041ZM359.892 31.8358C358.817 32.0903 358.152 33.168 358.406 34.2428C358.661 35.3177 359.739 35.9827 360.813 35.7281L359.892 31.8358ZM372.539 32.9512C373.614 32.6967 374.279 31.619 374.024 30.5441C373.77 29.4693 372.692 28.8043 371.617 29.0589L372.539 32.9512ZM366.97 19.6078C367.949 19.0974 368.33 17.8896 367.819 16.91C367.309 15.9304 366.101 15.55 365.122 16.0604L366.97 19.6078ZM355.111 21.2756C354.132 21.786 353.751 22.9938 354.262 23.9734C354.772 24.953 355.98 25.3334 356.96 24.823L355.111 21.2756ZM347.113 12.0825C346.286 12.8146 346.209 14.0786 346.941 14.9057C347.673 15.7329 348.937 15.81 349.764 15.0779L347.113 12.0825ZM359.6 6.37269C360.427 5.64064 360.504 4.37666 359.772 3.54951C359.04 2.72236 357.776 2.64526 356.949 3.37731L359.6 6.37269ZM144.696 144.287C144.76 143.184 143.918 142.238 142.816 142.174C141.713 142.11 140.767 142.952 140.703 144.055L144.696 144.287ZM145.289 165.578L147.087 164.702L147.087 164.702L145.289 165.578ZM157.811 170.312L156.954 168.505L156.954 168.505L157.811 170.312ZM164.267 159.413L166.226 159.815L166.226 159.814L164.267 159.413ZM167.748 135.3C167.662 134.199 166.699 133.376 165.598 133.462C164.497 133.549 163.674 134.511 163.76 135.612L167.748 135.3ZM143.207 154.667C142.112 154.809 141.339 155.812 141.481 156.907C141.623 158.003 142.627 158.775 143.722 158.633L143.207 154.667ZM165.269 155.837C166.365 155.694 167.137 154.691 166.995 153.596C166.853 152.5 165.85 151.728 164.754 151.87L165.269 155.837ZM155.745 171.413C155.606 170.317 154.604 169.542 153.509 169.682C152.413 169.821 151.638 170.823 151.777 171.918L155.745 171.413ZM153.246 183.444C153.386 184.54 154.387 185.315 155.483 185.175C156.579 185.035 157.354 184.034 157.214 182.938L153.246 183.444ZM180.653 54.5631C180.65 55.6677 181.543 56.5656 182.647 56.5686C183.752 56.5716 184.65 55.6787 184.653 54.5741L180.653 54.5631ZM162.839 42.9977L163.823 44.7389L163.825 44.738L162.839 42.9977ZM162.981 57.2513L162.828 59.2454L162.829 59.2456L162.981 57.2513ZM169.901 46.8463L167.918 47.1076L167.918 47.1088L169.901 46.8463ZM142.896 31.5358C141.916 32.046 141.536 33.2537 142.046 34.2334C142.556 35.2131 143.764 35.5937 144.744 35.0835L142.896 31.5358ZM216.15 58.3493C216.182 59.4534 217.103 60.3229 218.207 60.2912C219.311 60.2596 220.18 59.3389 220.149 58.2348L216.15 58.3493ZM207.412 32.3428L208.669 30.7869L208.668 30.786L207.412 32.3428ZM195.703 30.701L194.635 29.0097L194.635 29.0097L195.703 30.701ZM192 41.6509L193.959 41.251L193.959 41.2506L192 41.6509ZM214.613 64.9536L214.201 66.9107C215.083 67.0962 215.979 66.6699 216.391 65.8693C216.804 65.0687 216.63 64.0913 215.967 63.4816L214.613 64.9536ZM179.445 76.4701L177.488 76.0583L177.488 76.059L179.445 76.4701ZM217.502 68.4889L219.502 68.5155C219.516 67.4526 218.696 66.5644 217.636 66.4934C216.575 66.4224 215.644 67.1936 215.517 68.2489L217.502 68.4889ZM223.256 96.3063L221.529 97.3141L221.532 97.3197L223.256 96.3063ZM235.535 103.238L234.791 101.381L234.791 101.381L235.535 103.238ZM238.812 88.278L240.703 87.6282L240.702 87.6255L238.812 88.278ZM222.309 63.4313L221.798 61.4976C221.088 61.6855 220.537 62.2483 220.365 62.9632C220.193 63.678 220.427 64.4297 220.975 64.9205L222.309 63.4313ZM240.224 34.3287L241.111 32.5359L241.111 32.5358L240.224 34.3287ZM223.305 39.3972L224.973 40.5016L224.973 40.501L223.305 39.3972ZM216.157 58.4924C216.266 59.5916 217.245 60.3946 218.344 60.286C219.444 60.1773 220.247 59.1982 220.138 58.099L216.157 58.4924ZM227.278 158.212C226.777 157.228 225.572 156.837 224.588 157.338C223.604 157.839 223.212 159.044 223.714 160.028L227.278 158.212ZM241.275 184.841C242.036 185.641 243.302 185.672 244.102 184.911C244.902 184.149 244.934 182.883 244.172 182.083L241.275 184.841ZM219.058 82.1629C219.354 81.0987 218.731 79.9962 217.666 79.7006C216.602 79.4049 215.5 80.028 215.204 81.0923L219.058 82.1629ZM213.328 129.51C213.53 130.596 214.575 131.312 215.661 131.11C216.746 130.907 217.463 129.863 217.26 128.777L213.328 129.51ZM214.327 125.74L214.059 127.722C214.86 127.83 215.648 127.446 216.055 126.747C216.462 126.049 216.409 125.174 215.92 124.53L214.327 125.74ZM150.215 91.9093L150.315 89.9118C149.491 89.8706 148.726 90.3396 148.389 91.0927C148.052 91.8459 148.212 92.7286 148.792 93.3153L150.215 91.9093ZM220.956 142.151L219.787 143.775L219.787 143.775L220.956 142.151ZM230.346 148.469L229.697 150.361C230.643 150.685 231.683 150.261 232.132 149.368C232.582 148.475 232.303 147.387 231.479 146.821L230.346 148.469ZM207.562 138.113L206.148 136.699C206.121 136.726 206.094 136.754 206.069 136.782L207.562 138.113ZM308.569 177.006C309.621 176.667 310.198 175.54 309.859 174.489C309.52 173.437 308.393 172.86 307.342 173.199L308.569 177.006ZM317.856 138.499C318.857 138.03 319.287 136.84 318.819 135.839C318.35 134.839 317.159 134.408 316.159 134.877L317.856 138.499ZM222.052 125.943L223.859 126.8C223.873 126.772 223.885 126.744 223.897 126.715L222.052 125.943ZM239.193 140.708L238.501 142.585C239.479 142.945 240.57 142.495 241.008 141.549C241.446 140.603 241.084 139.48 240.177 138.967L239.193 140.708ZM213.313 131.134L214.941 132.297C214.99 132.228 215.035 132.155 215.076 132.08L213.313 131.134ZM234.141 209.502C233.072 209.781 232.431 210.873 232.71 211.942C232.988 213.011 234.08 213.652 235.149 213.373L234.141 209.502ZM260.173 215.586L261.264 213.91L261.264 213.91L260.173 215.586ZM251.58 245.414L252.809 243.837L252.808 243.836L251.58 245.414ZM250.369 240.674L249.019 239.198L249.014 239.203L250.369 240.674ZM254.071 240.674L254.926 238.866L254.922 238.864L254.071 240.674ZM246.512 267.23C245.414 267.345 244.616 268.328 244.731 269.427C244.846 270.526 245.829 271.323 246.928 271.208L246.512 267.23ZM112.393 156.198C113.49 156.327 114.484 155.542 114.613 154.445C114.742 153.348 113.958 152.354 112.861 152.225L112.393 156.198ZM97.4647 150.413C96.3677 150.284 95.3737 151.069 95.2446 152.166C95.1155 153.263 95.9001 154.257 96.9971 154.386L97.4647 150.413ZM121.315 140.797C122.231 141.413 123.474 141.17 124.091 140.254C124.707 139.337 124.464 138.095 123.548 137.478L121.315 140.797ZM102.612 123.391C101.696 122.774 100.453 123.017 99.8364 123.934C99.2197 124.85 99.4628 126.093 100.379 126.709L102.612 123.391ZM124.729 110.768C124.123 109.845 122.883 109.588 121.96 110.194C121.036 110.8 120.779 112.04 121.385 112.963L124.729 110.768ZM130.797 127.298C131.403 128.222 132.643 128.479 133.567 127.873C134.49 127.266 134.747 126.027 134.141 125.103L130.797 127.298ZM264.434 78.1505C260.401 71.5136 253.083 67.0202 245.331 66.4242L245.024 70.4125C251.493 70.9098 257.652 74.6927 261.015 80.2275L264.434 78.1505ZM180.426 292.549C187.245 283.029 193.599 268.921 197.837 254.389C202.07 239.881 204.275 224.673 202.569 212.971L198.611 213.549C200.198 224.433 198.159 239.004 193.998 253.269C189.843 267.512 183.655 281.173 177.174 290.22L180.426 292.549ZM202.569 212.972C200.991 202.14 197.08 190.756 188.503 183.19L185.857 186.19C193.405 192.848 197.092 203.125 198.611 213.548L202.569 212.972ZM188.503 183.19C179.683 175.409 168.523 175.092 156.759 180.217L158.356 183.884C169.18 179.168 178.552 179.745 185.857 186.19L188.503 183.19ZM156.759 180.216C154.678 181.122 149.61 183.931 145.458 187.074C143.395 188.635 141.411 190.388 140.153 192.13C139.525 192.999 138.98 193.998 138.782 195.074C138.57 196.225 138.768 197.435 139.577 198.48L142.74 196.032C142.717 196.002 142.682 195.982 142.716 195.799C142.764 195.539 142.943 195.098 143.396 194.471C144.299 193.221 145.901 191.755 147.872 190.263C151.789 187.298 156.585 184.655 158.355 183.884L156.759 180.216ZM139.576 198.479C140.296 199.411 141.343 199.768 142.2 199.904C143.076 200.041 144.037 199.995 144.972 199.87C146.85 199.619 149.056 198.985 151.16 198.264C155.393 196.813 159.642 194.856 160.842 194.323L159.216 190.668C157.959 191.227 153.892 193.099 149.864 194.48C147.838 195.174 145.927 195.707 144.441 195.906C143.693 196.006 143.161 196.005 142.823 195.952C142.467 195.896 142.58 195.826 142.741 196.033L139.576 198.479ZM160.842 194.323C163.344 193.209 166.302 191.841 169.149 190.607L167.557 186.937C164.702 188.175 161.629 189.594 159.216 190.668L160.842 194.323ZM167.545 186.942C164.411 188.325 158.206 190.85 152.892 193.733C150.237 195.173 147.687 196.763 145.803 198.42C144.859 199.249 144.015 200.153 143.414 201.127C142.81 202.103 142.386 203.258 142.479 204.522L146.468 204.229C146.456 204.062 146.498 203.745 146.816 203.23C147.137 202.711 147.67 202.104 148.444 201.424C149.993 200.061 152.235 198.64 154.799 197.249C159.923 194.469 165.868 192.055 169.16 190.601L167.545 186.942ZM142.548 204.916C142.936 206.3 143.775 207.358 144.979 207.992C146.108 208.587 147.396 208.726 148.616 208.668C151.033 208.553 153.92 207.618 156.705 206.482C159.537 205.326 162.48 203.871 165.057 202.566C167.69 201.233 169.859 200.101 171.304 199.495L169.754 195.807C168.138 196.486 165.767 197.723 163.251 198.997C160.679 200.299 157.862 201.69 155.194 202.778C152.478 203.886 150.123 204.592 148.425 204.673C147.588 204.712 147.1 204.589 146.844 204.453C146.663 204.358 146.507 204.219 146.399 203.835L142.548 204.916ZM169.504 195.934C168.313 196.644 166.305 197.638 163.848 198.888C161.442 200.112 158.69 201.54 156.174 203.054C153.69 204.548 151.288 206.213 149.678 207.94C148.164 209.563 146.688 212.009 148.05 214.58L151.585 212.708C151.524 212.593 151.292 212.074 152.603 210.668C153.817 209.366 155.821 207.935 158.237 206.481C160.621 205.047 163.263 203.673 165.661 202.454C168.007 201.26 170.211 200.17 171.554 199.368L169.504 195.934ZM148.002 214.483C149.168 217.005 151.85 217.44 154.023 217.299C156.308 217.151 158.998 216.349 161.626 215.313C166.914 213.228 172.598 209.933 175.591 207.732L173.221 204.509C170.503 206.508 165.122 209.635 160.159 211.592C157.661 212.576 155.429 213.2 153.765 213.308C151.99 213.422 151.697 212.943 151.633 212.805L148.002 214.483ZM94.8567 236.417C95.8071 241.197 99.5689 245.255 104.257 246.571L105.338 242.72C102.098 241.81 99.4361 238.938 98.7799 235.637L94.8567 236.417ZM104.257 246.571C108.946 247.888 114.282 246.373 117.581 242.789L114.638 240.08C112.359 242.556 108.577 243.63 105.338 242.72L104.257 246.571ZM104.753 181.056C117.745 189.994 127.633 202.74 133.051 217.531L136.807 216.155C131.103 200.584 120.694 187.168 107.02 177.76L104.753 181.056ZM133.737 215.237L111.18 231.972L113.563 235.184L136.12 218.449L133.737 215.237ZM68.8126 194.939C63.8452 192.954 58.2996 190.745 52.4306 190.769L52.4466 194.769C57.411 194.749 62.2384 196.62 67.3284 198.654L68.8126 194.939ZM52.4306 190.769C46.5416 190.792 39.8471 193.589 37.2441 199.519L40.9067 201.127C42.6523 197.15 47.5021 194.788 52.4466 194.769L52.4306 190.769ZM37.2441 199.519C34.5839 205.577 37.1703 212.339 40.3384 217.14L43.6772 214.937C40.7159 210.449 39.0949 205.253 40.9066 201.127L37.2441 199.519ZM40.3385 217.14C49.4817 230.996 67.1462 238.617 83.5154 235.771L82.8303 231.83C68.0264 234.404 51.9428 227.463 43.6771 214.937L40.3385 217.14ZM54.7731 205.757C54.4565 211.375 57.6734 216.984 62.6873 219.553L64.5112 215.993C60.904 214.145 58.5393 210.019 58.7668 205.982L54.7731 205.757ZM71.0935 166.938C55.1876 162.686 37.1143 168.326 26.4656 180.866L29.5147 183.455C39.162 172.094 55.6456 166.949 70.0604 170.802L71.0935 166.938ZM26.4657 180.866C23.2052 184.705 20.4417 189.394 19.6971 194.674L23.658 195.233C24.259 190.97 26.5332 186.966 29.5146 183.455L26.4657 180.866ZM19.6971 194.674C18.953 199.952 20.4779 205.911 24.7429 209.619L27.3674 206.601C24.3532 203.98 23.0565 199.498 23.658 195.233L19.6971 194.674ZM24.7639 206.583C15.4928 214.421 12.4146 228.6 17.6047 239.569L21.2204 237.858C16.8065 228.53 19.4587 216.306 27.3464 209.637L24.7639 206.583ZM17.6047 239.569C22.7945 250.536 35.721 257.167 47.6715 254.996L46.9566 251.061C36.7832 252.908 25.6346 247.186 21.2204 237.858L17.6047 239.569ZM46.1448 251.406C37.6896 257.499 28.4309 264.27 23.4714 274.158L27.0468 275.952C31.4954 267.082 39.8922 260.842 48.4834 254.651L46.1448 251.406ZM23.4714 274.158C20.9384 279.208 19.9378 285.244 20.7434 290.837C21.5504 296.44 24.2023 301.752 29.1363 305.066L31.3666 301.746C27.5852 299.206 25.3889 295.032 24.7026 290.267C24.0148 285.492 24.8757 280.28 27.0468 275.952L23.4714 274.158ZM29.1362 305.066C36.3395 309.906 45.9552 308.916 53.2168 305.185L51.3889 301.627C44.9301 304.945 36.9626 305.505 31.3667 301.746L29.1362 305.066ZM53.2168 305.185C60.4609 301.463 66.0217 295.34 71.0798 289.57L68.0719 286.933C62.9712 292.752 57.8653 298.3 51.3889 301.627L53.2168 305.185ZM90.3867 196.947L91.8102 206.992L95.7706 206.43L94.3472 196.386L90.3867 196.947ZM62.6749 257.292C72.8835 249.309 88.2821 248.627 99.1539 255.672L101.329 252.315C89.0251 244.342 71.7636 245.107 60.211 254.141L62.6749 257.292ZM99.1542 255.672C106.46 260.404 111.618 268.099 114.88 276.467L118.607 275.014C115.153 266.153 109.561 257.647 101.329 252.315L99.1542 255.672ZM114.88 276.467C118.151 284.855 119.652 293.845 121.165 303.001L125.111 302.349C123.61 293.262 122.054 283.856 118.607 275.014L114.88 276.467ZM254.469 51.6061C285.889 59.1285 318.074 63.0053 350.384 63.1595L350.403 59.1595C318.4 59.0068 286.521 55.1669 255.4 47.7161L254.469 51.6061ZM352.393 61.1189C352.164 49.8047 351.41 37.4588 345.313 27.201L341.874 29.2449C347.372 38.4939 348.164 49.8398 348.394 61.2001L352.393 61.1189ZM345.313 27.201C342.212 21.9838 337.372 17.5695 331.867 14.9932C326.355 12.4133 320.043 11.6234 314.129 13.9187L315.576 17.6477C320.25 15.8339 325.41 16.3871 330.172 18.616C334.942 20.8486 339.178 24.7087 341.874 29.2449L345.313 27.201ZM314.129 13.9187C304.177 17.7808 299.159 28.4714 296.923 37.9952L300.818 38.9095C302.981 29.6941 307.56 20.7585 315.576 17.6477L314.129 13.9187ZM298.956 36.4542C280.399 35.6614 268.733 39.181 253.917 47.9394L255.952 51.3828C270.166 42.9805 281.073 39.6938 298.785 40.4505L298.956 36.4542ZM320.718 66.4881C324.622 73.2958 332.363 77.6735 340.216 77.5159L340.135 73.5167C333.742 73.645 327.364 70.0361 324.188 64.4982L320.718 66.4881ZM338.82 74.0453C337.314 75.4329 336.143 77.1445 335.397 79.0507L339.121 80.5094C339.646 79.1686 340.47 77.9641 341.531 76.9872L338.82 74.0453ZM335.397 79.0507C334.65 80.9569 334.347 83.0077 334.512 85.048L338.499 84.7274C338.383 83.2926 338.596 81.8503 339.121 80.5094L335.397 79.0507ZM334.514 85.0801C334.711 87.1173 335.37 89.0829 336.439 90.8283L339.85 88.7384C339.097 87.5103 338.634 86.1278 338.496 84.6953L334.514 85.0801ZM336.439 90.8283C337.509 92.5738 338.962 94.0534 340.688 95.1556L342.84 91.7842C341.625 91.0081 340.602 89.9665 339.85 88.7384L336.439 90.8283ZM313.751 103.916C314.527 104.944 315.01 106.161 315.15 107.439L319.126 107.004C318.908 105.008 318.153 103.108 316.942 101.505L313.751 103.916ZM315.15 107.439C315.289 108.717 315.081 110.009 314.545 111.179L318.182 112.844C319.018 111.018 319.344 109 319.126 107.004L315.15 107.439ZM314.568 111.131C314.001 112.286 313.132 113.268 312.052 113.971L314.235 117.323C315.919 116.226 317.275 114.696 318.159 112.892L314.568 111.131ZM312.052 113.971C310.972 114.675 309.721 115.074 308.432 115.127L308.595 119.124C310.603 119.042 312.552 118.42 314.235 117.323L312.052 113.971ZM286.075 56.1316C277.537 70.7044 273.747 87.5658 275.229 104.383L279.213 104.032C277.805 88.0423 281.408 72.0102 289.526 58.1536L286.075 56.1316ZM276.823 106.168L304.877 111.873L305.674 107.954L277.62 102.248L276.823 106.168ZM299.578 68.2706L302.242 76.945L306.065 75.7708L303.402 67.0963L299.578 68.2706ZM352.001 62.8091C357.81 59.4332 365.855 60.2884 370.82 64.8089L373.513 61.8511C367.256 56.1549 357.308 55.0984 349.991 59.3507L352.001 62.8091ZM370.82 64.8089C375.785 69.3291 377.377 77.2403 374.546 83.3213L378.172 85.0096C381.743 77.3403 379.77 67.5477 373.513 61.8511L370.82 64.8089ZM377.546 85.7754C380.706 83.4459 384.896 82.8674 388.93 83.8314C392.968 84.7962 396.632 87.2595 398.7 90.7034L402.129 88.6442C399.435 84.1577 394.797 81.1207 389.86 79.9409C384.92 78.7603 379.463 79.3929 375.172 82.5555L377.546 85.7754ZM398.7 90.7034C402.915 97.7232 401.025 107.74 394.921 113.593L397.689 116.48C404.946 109.521 407.438 97.4854 402.129 88.6442L398.7 90.7034ZM394.921 113.593C388.828 119.436 379.304 121.265 370.903 119.041L369.879 122.907C379.387 125.425 390.421 123.45 397.689 116.48L394.921 113.593ZM360.813 35.7281L372.539 32.9512L371.617 29.0589L359.892 31.8358L360.813 35.7281ZM365.122 16.0604L355.111 21.2756L356.96 24.823L366.97 19.6078L365.122 16.0604ZM349.764 15.0779L359.6 6.37269L356.949 3.37731L347.113 12.0825L349.764 15.0779ZM140.703 144.055C140.554 146.626 140.674 150.99 141.096 155.252C141.307 157.391 141.599 159.542 141.981 161.457C142.356 163.339 142.842 165.123 143.491 166.454L147.087 164.702C146.666 163.838 146.259 162.456 145.903 160.675C145.555 158.926 145.28 156.912 145.076 154.858C144.668 150.732 144.563 146.588 144.696 144.287L140.703 144.055ZM143.491 166.454C145.185 169.93 147.598 172.087 150.435 172.956C153.232 173.813 156.133 173.322 158.668 172.119L156.954 168.505C155.072 169.398 153.214 169.624 151.606 169.131C150.037 168.651 148.399 167.394 147.087 164.702L143.491 166.454ZM158.668 172.119C161.168 170.933 162.835 168.888 163.972 166.685C165.103 164.494 165.771 162.033 166.226 159.815L162.308 159.01C161.882 161.086 161.303 163.134 160.418 164.85C159.539 166.553 158.419 167.81 156.954 168.505L158.668 172.119ZM166.226 159.814C167.878 151.754 168.39 143.502 167.748 135.3L163.76 135.612C164.373 143.441 163.884 151.318 162.308 159.011L166.226 159.814ZM143.722 158.633L165.269 155.837L164.754 151.87L143.207 154.667L143.722 158.633ZM151.777 171.918L153.246 183.444L157.214 182.938L155.745 171.413L151.777 171.918ZM184.653 54.5741C184.667 49.2458 181.692 44.0515 177.085 41.3628L175.069 44.8174C178.445 46.7881 180.663 50.663 180.653 54.5631L184.653 54.5741ZM177.085 41.3628C172.48 38.6748 166.489 38.6323 161.854 41.2574L163.825 44.738C167.219 42.8159 171.691 42.8459 175.069 44.8174L177.085 41.3628ZM161.855 41.2566C158.688 43.0466 155.884 46.3527 155.643 50.3931L159.636 50.6307C159.773 48.3318 161.456 46.0769 163.823 44.7389L161.855 41.2566ZM155.643 50.3931C155.518 52.4961 156.234 54.5872 157.465 56.1949C158.699 57.8071 160.566 59.072 162.828 59.2454L163.133 55.2571C162.231 55.188 161.333 54.6681 160.641 53.7636C159.945 52.8547 159.573 51.6974 159.636 50.6307L155.643 50.3931ZM162.829 59.2456C166.163 59.4984 169.119 57.383 170.584 54.7975L167.103 52.8263C166.214 54.397 164.571 55.3662 163.132 55.257L162.829 59.2456ZM170.584 54.7975C172.051 52.2059 172.23 49.2003 171.883 46.5838L167.918 47.1088C168.199 49.2313 167.989 51.2617 167.103 52.8263L170.584 54.7975ZM171.884 46.5849C171.049 40.2536 166.987 34.4687 161.314 31.5237L159.471 35.0738C163.987 37.4182 167.254 42.0745 167.918 47.1076L171.884 46.5849ZM161.314 31.5237C155.642 28.5786 148.566 28.5827 142.896 31.5358L144.744 35.0835C149.258 32.7326 154.956 32.7294 159.471 35.0738L161.314 31.5237ZM220.149 58.2348C219.835 47.288 215.333 36.1686 208.669 30.7869L206.156 33.8988C211.627 38.3175 215.858 48.1494 216.15 58.3493L220.149 58.2348ZM208.668 30.786C206.837 29.3097 204.467 28.2061 202.028 27.7788C199.592 27.3521 196.909 27.575 194.635 29.0097L196.77 32.3923C197.973 31.6331 199.573 31.4098 201.337 31.7188C203.098 32.0274 204.845 32.8417 206.157 33.8997L208.668 30.786ZM194.635 29.0097C193.131 29.9591 191.717 31.8001 190.817 33.9908C189.894 36.2351 189.426 39.0438 190.04 42.0511L193.959 41.2506C193.525 39.126 193.853 37.1259 194.516 35.5113C195.202 33.8432 196.164 32.7752 196.77 32.3923L194.635 29.0097ZM190.04 42.0507C191.307 48.2603 195.725 52.8934 200.332 56.63C202.652 58.5111 205.116 60.2392 207.356 61.8412C209.631 63.4679 211.659 64.9533 213.259 66.4255L215.967 63.4816C214.159 61.8185 211.937 60.1988 209.683 58.5875C207.395 56.9515 205.053 55.3088 202.852 53.5233C198.418 49.9268 194.937 46.0439 193.959 41.251L190.04 42.0507ZM215.025 62.9965C208.316 61.5843 200.945 60.1849 193.734 61.6581L194.534 65.5772C200.826 64.2917 207.425 65.4844 214.201 66.9107L215.025 62.9965ZM193.734 61.6581C186.502 63.1356 179.125 68.2771 177.488 76.0583L181.402 76.8819C182.601 71.1843 188.263 66.8584 194.534 65.5772L193.734 61.6581ZM177.488 76.059C175.762 84.2765 181.474 92.7248 189.158 95.3396L190.446 91.5528C184.395 89.4936 180.151 82.8411 181.402 76.8812L177.488 76.059ZM189.158 95.3396C196.861 97.9612 205.613 95.1913 211.199 89.6386L208.38 86.8017C203.684 91.4693 196.477 93.6051 190.446 91.5528L189.158 95.3396ZM211.199 89.6386C216.792 84.0797 219.4 76.1544 219.502 68.5155L215.502 68.4624C215.411 75.3051 213.069 82.1401 208.38 86.8017L211.199 89.6386ZM215.517 68.2489C214.297 78.3325 216.408 88.5377 221.529 97.3141L224.984 95.2984C220.303 87.2751 218.373 77.9463 219.488 68.729L215.517 68.2489ZM221.532 97.3197C222.943 99.7211 225.015 102.188 227.481 103.817C229.961 105.454 233.08 106.377 236.279 105.094L234.791 101.381C233.222 102.01 231.502 101.679 229.685 100.479C227.854 99.2698 226.169 97.3156 224.98 95.2928L221.532 97.3197ZM236.279 105.094C239.817 103.676 241.367 100.464 241.815 97.249C242.261 94.0518 241.695 90.5148 240.703 87.6282L236.92 88.9278C237.766 91.3886 238.191 94.2778 237.853 96.6967C237.519 99.0981 236.512 100.692 234.791 101.381L236.279 105.094ZM240.702 87.6255C237.296 77.7557 231.425 68.9163 223.644 61.942L220.975 64.9205C228.249 71.441 233.737 79.7046 236.921 88.9305L240.702 87.6255ZM222.82 65.3649C229.94 63.4835 238.279 61.1769 243.596 54.9556L240.556 52.3567C236.178 57.4781 229.132 59.5595 221.798 61.4976L222.82 65.3649ZM243.596 54.9556C246.385 51.6923 247.737 47.1659 247.476 42.9833C247.214 38.7883 245.284 34.5995 241.111 32.5359L239.338 36.1214C241.864 37.3705 243.283 40.0098 243.484 43.2325C243.686 46.4676 242.614 49.9487 240.556 52.3567L243.596 54.9556ZM241.111 32.5358C234.246 29.1424 226.132 31.5017 221.637 38.2934L224.973 40.501C228.443 35.2585 234.419 33.6896 239.338 36.1215L241.111 32.5358ZM221.638 38.2928C217.812 44.0688 215.458 51.4126 216.157 58.4924L220.138 58.099C219.547 52.1164 221.544 45.6774 224.973 40.5016L221.638 38.2928ZM223.714 160.028C228.336 169.102 234.251 177.46 241.275 184.841L244.172 182.083C237.415 174.983 231.725 166.942 227.278 158.212L223.714 160.028ZM215.204 81.0923C210.83 96.8362 210.343 113.499 213.328 129.51L217.26 128.777C214.38 113.327 214.858 97.2829 219.058 82.1629L215.204 81.0923ZM215.92 124.53C200.486 104.21 175.828 91.1885 150.315 89.9118L150.115 93.9068C174.449 95.1245 198.014 107.569 212.734 126.95L215.92 124.53ZM148.792 93.3153C165.883 110.605 189.763 124.436 214.059 127.722L214.595 123.758C191.35 120.614 168.244 107.304 151.637 90.5033L148.792 93.3153ZM219.787 143.775C223.061 146.132 226.868 148.505 229.213 150.117L231.479 146.821C228.826 144.997 225.433 142.91 222.124 140.528L219.787 143.775ZM230.995 146.577C229.834 146.179 228.123 145.192 225.98 143.824C223.955 142.531 221.51 140.876 219.256 139.478C216.981 138.067 214.621 136.737 212.531 136.013C210.632 135.355 207.983 134.864 206.148 136.699L208.976 139.527C208.983 139.52 209.392 139.159 211.222 139.792C212.861 140.36 214.899 141.483 217.148 142.878C219.419 144.285 221.623 145.788 223.828 147.195C225.914 148.527 228.013 149.783 229.697 150.361L230.995 146.577ZM206.069 136.782C205.205 137.751 204.95 138.953 205.041 140.098C205.13 141.204 205.539 142.339 206.108 143.437C207.246 145.638 209.262 148.149 211.899 150.764C217.2 156.022 225.37 162.056 235.307 167.311C255.14 177.798 282.489 185.417 308.569 177.006L307.342 173.199C282.7 181.146 256.523 174.004 237.176 163.774C227.523 158.67 219.689 152.857 214.716 147.924C212.215 145.443 210.526 143.272 209.66 141.599C209.226 140.759 209.059 140.159 209.029 139.78C209.014 139.602 209.033 139.507 209.043 139.471C209.048 139.454 209.052 139.447 209.052 139.447C209.053 139.447 209.053 139.446 209.053 139.446C209.053 139.446 209.053 139.446 209.055 139.444L206.069 136.782ZM316.159 134.877C294.538 145.009 272.548 139.956 255.089 133.399C250.736 131.764 246.688 130.045 243.008 128.456C239.35 126.876 236.009 125.405 233.155 124.307C230.343 123.226 227.769 122.412 225.679 122.277C224.616 122.208 223.51 122.301 222.512 122.759C221.452 123.245 220.666 124.074 220.208 125.17L223.897 126.715C223.984 126.508 224.068 126.446 224.18 126.394C224.355 126.314 224.725 126.223 225.421 126.268C226.847 126.361 228.921 126.965 231.719 128.041C234.476 129.1 237.71 130.525 241.423 132.128C245.114 133.722 249.235 135.473 253.682 137.143C271.423 143.806 294.729 149.337 317.856 138.499L316.159 134.877ZM220.245 125.085C219.752 126.125 219.851 127.188 220.149 128.062C220.44 128.913 220.958 129.713 221.535 130.431C222.693 131.871 224.41 133.369 226.276 134.792C230.038 137.661 234.828 140.54 238.209 142.45L240.177 138.967C236.844 137.085 232.243 134.312 228.702 131.612C226.917 130.251 225.505 128.985 224.652 127.924C224.224 127.392 224.016 127.007 223.934 126.769C223.861 126.555 223.942 126.626 223.859 126.8L220.245 125.085ZM239.885 138.832C235.48 137.209 229.85 133.922 224.575 131.321C222.041 130.072 219.551 128.968 217.494 128.468C216.472 128.221 215.378 128.075 214.36 128.247C213.258 128.433 212.182 129.014 211.551 130.188L215.076 132.08C215.001 132.219 214.868 132.217 215.026 132.191C215.267 132.15 215.749 132.161 216.55 132.356C218.139 132.741 220.281 133.664 222.806 134.909C227.651 137.297 233.848 140.87 238.501 142.585L239.885 138.832ZM211.686 129.971C210.778 131.242 210.588 132.669 210.903 134.041C211.199 135.33 211.927 136.53 212.777 137.593C214.477 139.721 217.119 141.853 219.787 143.775L222.125 140.528C219.496 138.636 217.238 136.769 215.902 135.096C215.233 134.26 214.908 133.609 214.801 133.145C214.714 132.765 214.77 132.536 214.941 132.297L211.686 129.971ZM235.149 213.373C243.193 211.279 252.117 212.729 259.082 217.262L261.264 213.91C253.356 208.762 243.273 207.125 234.141 209.502L235.149 213.373ZM259.081 217.262C263.481 220.127 267.051 224.223 268.456 229.009L272.294 227.882C270.552 221.948 266.233 217.145 261.264 213.91L259.081 217.262ZM268.456 229.009C269.864 233.804 268.824 239.279 265.465 242.598L268.276 245.443C272.875 240.899 274.034 233.808 272.294 227.882L268.456 229.009ZM265.465 242.598C262.086 245.936 256.306 246.561 252.809 243.837L250.351 246.992C255.673 251.139 263.697 249.968 268.276 245.443L265.465 242.598ZM252.808 243.836C252.356 243.484 251.963 242.935 251.809 242.465C251.736 242.243 251.744 242.125 251.748 242.1C251.749 242.091 251.748 242.102 251.738 242.122C251.727 242.143 251.717 242.151 251.724 242.145L249.014 239.203C247.541 240.559 247.577 242.401 248.009 243.714C248.436 245.013 249.335 246.202 250.352 246.993L252.808 243.836ZM251.718 242.15C251.718 242.15 251.717 242.151 251.716 242.152C251.714 242.153 251.713 242.154 251.713 242.154C251.711 242.155 251.717 242.151 251.735 242.146C251.773 242.135 251.861 242.119 252.014 242.129C252.338 242.149 252.768 242.271 253.22 242.484L254.922 238.864C254.188 238.518 253.251 238.198 252.262 238.137C251.259 238.074 250.028 238.276 249.019 239.198L251.718 242.15ZM253.216 242.482C258.241 244.858 260.951 251.392 259.373 256.906L263.218 258.006C265.284 250.786 261.883 242.156 254.926 238.866L253.216 242.482ZM259.373 256.906C257.799 262.406 252.38 266.617 246.512 267.23L246.928 271.208C254.244 270.444 261.149 265.239 263.218 258.006L259.373 256.906ZM112.861 152.225L97.4647 150.413L96.9971 154.386L112.393 156.198L112.861 152.225ZM123.548 137.478L102.612 123.391L100.379 126.709L121.315 140.797L123.548 137.478ZM121.385 112.963L130.797 127.298L134.141 125.103L124.729 110.768L121.385 112.963Z" fill="white"/>
</svg>
